<mxfile host="Electron" agent="Mozilla/5.0 (Windows NT 10.0; Win64; x64) AppleWebKit/537.36 (KHTML, like Gecko) draw.io/26.1.1 Chrome/132.0.6834.210 Electron/34.3.3 Safari/537.36" version="26.1.1">
  <diagram name="Page-1" id="sxTtOOyC4aCbc1AdC8Zn">
    <mxGraphModel dx="1276" dy="614" grid="1" gridSize="10" guides="1" tooltips="1" connect="1" arrows="1" fold="1" page="1" pageScale="1" pageWidth="850" pageHeight="1100" math="0" shadow="0">
      <root>
        <mxCell id="0" />
        <mxCell id="1" parent="0" />
        <mxCell id="Yo4yAzisLPnI8vR0azLB-1" value="" style="rounded=0;whiteSpace=wrap;html=1;fillColor=#CCFFE6;" vertex="1" parent="1">
          <mxGeometry x="90" y="40" width="670" height="290" as="geometry" />
        </mxCell>
        <mxCell id="Yo4yAzisLPnI8vR0azLB-2" value="" style="rounded=0;whiteSpace=wrap;html=1;fillColor=#CCFFFF;" vertex="1" parent="1">
          <mxGeometry x="120" y="79" width="130" height="231" as="geometry" />
        </mxCell>
        <mxCell id="Yo4yAzisLPnI8vR0azLB-3" value="External Devices" style="text;html=1;align=center;verticalAlign=middle;resizable=0;points=[];autosize=1;strokeColor=none;fillColor=none;" vertex="1" parent="1">
          <mxGeometry x="130" y="79" width="110" height="30" as="geometry" />
        </mxCell>
        <mxCell id="Yo4yAzisLPnI8vR0azLB-4" value="" style="rounded=0;whiteSpace=wrap;html=1;fillColor=#CCFFFF;" vertex="1" parent="1">
          <mxGeometry x="340" y="79" width="130" height="231" as="geometry" />
        </mxCell>
        <mxCell id="Yo4yAzisLPnI8vR0azLB-5" value="Internal MCU Driver" style="text;html=1;align=center;verticalAlign=middle;resizable=0;points=[];autosize=1;strokeColor=none;fillColor=none;" vertex="1" parent="1">
          <mxGeometry x="340" y="79" width="130" height="30" as="geometry" />
        </mxCell>
        <mxCell id="Yo4yAzisLPnI8vR0azLB-6" value="" style="rounded=0;whiteSpace=wrap;html=1;fillColor=#CCFFFF;" vertex="1" parent="1">
          <mxGeometry x="600" y="79" width="130" height="231" as="geometry" />
        </mxCell>
        <mxCell id="Yo4yAzisLPnI8vR0azLB-7" value="Built-in" style="text;html=1;align=center;verticalAlign=middle;resizable=0;points=[];autosize=1;strokeColor=none;fillColor=none;" vertex="1" parent="1">
          <mxGeometry x="635" y="79" width="60" height="30" as="geometry" />
        </mxCell>
        <mxCell id="Yo4yAzisLPnI8vR0azLB-8" value="RGB LED" style="rounded=0;whiteSpace=wrap;html=1;" vertex="1" parent="1">
          <mxGeometry x="132.5" y="149" width="105" height="40" as="geometry" />
        </mxCell>
        <mxCell id="Yo4yAzisLPnI8vR0azLB-9" style="edgeStyle=orthogonalEdgeStyle;rounded=0;orthogonalLoop=1;jettySize=auto;html=1;entryX=0;entryY=0.5;entryDx=0;entryDy=0;" edge="1" parent="1" source="Yo4yAzisLPnI8vR0azLB-10" target="Yo4yAzisLPnI8vR0azLB-18">
          <mxGeometry relative="1" as="geometry">
            <mxPoint x="550" y="269" as="targetPoint" />
          </mxGeometry>
        </mxCell>
        <mxCell id="Yo4yAzisLPnI8vR0azLB-10" value="ADC Pins" style="rounded=0;whiteSpace=wrap;html=1;" vertex="1" parent="1">
          <mxGeometry x="132.5" y="249" width="105" height="40" as="geometry" />
        </mxCell>
        <mxCell id="Yo4yAzisLPnI8vR0azLB-11" style="edgeStyle=orthogonalEdgeStyle;rounded=0;orthogonalLoop=1;jettySize=auto;html=1;entryX=0;entryY=0.5;entryDx=0;entryDy=0;" edge="1" parent="1" source="Yo4yAzisLPnI8vR0azLB-13" target="Yo4yAzisLPnI8vR0azLB-20">
          <mxGeometry relative="1" as="geometry" />
        </mxCell>
        <mxCell id="Yo4yAzisLPnI8vR0azLB-12" style="edgeStyle=orthogonalEdgeStyle;rounded=0;orthogonalLoop=1;jettySize=auto;html=1;entryX=-0.01;entryY=0.309;entryDx=0;entryDy=0;entryPerimeter=0;" edge="1" parent="1" source="Yo4yAzisLPnI8vR0azLB-13" target="Yo4yAzisLPnI8vR0azLB-18">
          <mxGeometry relative="1" as="geometry">
            <mxPoint x="551" y="270" as="targetPoint" />
            <Array as="points">
              <mxPoint x="551" y="230" />
              <mxPoint x="551" y="261" />
              <mxPoint x="612" y="261" />
            </Array>
          </mxGeometry>
        </mxCell>
        <mxCell id="Yo4yAzisLPnI8vR0azLB-13" value="MSP430fr2310" style="rounded=0;whiteSpace=wrap;html=1;" vertex="1" parent="1">
          <mxGeometry x="132.5" y="199" width="105" height="40" as="geometry" />
        </mxCell>
        <mxCell id="Yo4yAzisLPnI8vR0azLB-14" style="edgeStyle=orthogonalEdgeStyle;rounded=0;orthogonalLoop=1;jettySize=auto;html=1;" edge="1" parent="1" source="Yo4yAzisLPnI8vR0azLB-15" target="Yo4yAzisLPnI8vR0azLB-8">
          <mxGeometry relative="1" as="geometry" />
        </mxCell>
        <mxCell id="Yo4yAzisLPnI8vR0azLB-15" value="PWM" style="rounded=0;whiteSpace=wrap;html=1;" vertex="1" parent="1">
          <mxGeometry x="352.5" y="149" width="105" height="40" as="geometry" />
        </mxCell>
        <mxCell id="Yo4yAzisLPnI8vR0azLB-16" style="edgeStyle=orthogonalEdgeStyle;rounded=0;orthogonalLoop=1;jettySize=auto;html=1;" edge="1" parent="1" source="Yo4yAzisLPnI8vR0azLB-17" target="Yo4yAzisLPnI8vR0azLB-15">
          <mxGeometry relative="1" as="geometry" />
        </mxCell>
        <mxCell id="Yo4yAzisLPnI8vR0azLB-17" value="Timer" style="rounded=0;whiteSpace=wrap;html=1;" vertex="1" parent="1">
          <mxGeometry x="612.5" y="149" width="105" height="40" as="geometry" />
        </mxCell>
        <mxCell id="Yo4yAzisLPnI8vR0azLB-18" value="GPIO" style="rounded=0;whiteSpace=wrap;html=1;" vertex="1" parent="1">
          <mxGeometry x="612.5" y="249" width="105" height="40" as="geometry" />
        </mxCell>
        <mxCell id="Yo4yAzisLPnI8vR0azLB-19" value="&lt;div&gt;Master&lt;/div&gt;MSP430fr2355" style="text;html=1;align=center;verticalAlign=middle;resizable=0;points=[];autosize=1;strokeColor=none;fillColor=none;" vertex="1" parent="1">
          <mxGeometry x="375" y="35" width="100" height="40" as="geometry" />
        </mxCell>
        <mxCell id="Yo4yAzisLPnI8vR0azLB-20" value="I2C" style="rounded=0;whiteSpace=wrap;html=1;" vertex="1" parent="1">
          <mxGeometry x="612.5" y="199" width="105" height="40" as="geometry" />
        </mxCell>
        <mxCell id="Yo4yAzisLPnI8vR0azLB-21" value="" style="rounded=0;whiteSpace=wrap;html=1;fillColor=#CCFFE6;" vertex="1" parent="1">
          <mxGeometry x="90" y="365" width="670" height="285" as="geometry" />
        </mxCell>
        <mxCell id="Yo4yAzisLPnI8vR0azLB-22" value="" style="rounded=0;whiteSpace=wrap;html=1;fillColor=#CCFFFF;" vertex="1" parent="1">
          <mxGeometry x="120" y="404" width="130" height="226" as="geometry" />
        </mxCell>
        <mxCell id="Yo4yAzisLPnI8vR0azLB-23" value="External Devices" style="text;html=1;align=center;verticalAlign=middle;resizable=0;points=[];autosize=1;strokeColor=none;fillColor=none;" vertex="1" parent="1">
          <mxGeometry x="130" y="404" width="110" height="30" as="geometry" />
        </mxCell>
        <mxCell id="Yo4yAzisLPnI8vR0azLB-24" value="" style="rounded=0;whiteSpace=wrap;html=1;fillColor=#CCFFFF;" vertex="1" parent="1">
          <mxGeometry x="340" y="404" width="130" height="226" as="geometry" />
        </mxCell>
        <mxCell id="Yo4yAzisLPnI8vR0azLB-25" value="Internal MCU Driver" style="text;html=1;align=center;verticalAlign=middle;resizable=0;points=[];autosize=1;strokeColor=none;fillColor=none;" vertex="1" parent="1">
          <mxGeometry x="340" y="404" width="130" height="30" as="geometry" />
        </mxCell>
        <mxCell id="Yo4yAzisLPnI8vR0azLB-26" value="" style="rounded=0;whiteSpace=wrap;html=1;fillColor=#CCFFFF;" vertex="1" parent="1">
          <mxGeometry x="600" y="404" width="130" height="226" as="geometry" />
        </mxCell>
        <mxCell id="Yo4yAzisLPnI8vR0azLB-27" value="Built-in" style="text;html=1;align=center;verticalAlign=middle;resizable=0;points=[];autosize=1;strokeColor=none;fillColor=none;" vertex="1" parent="1">
          <mxGeometry x="635" y="404" width="60" height="30" as="geometry" />
        </mxCell>
        <mxCell id="Yo4yAzisLPnI8vR0azLB-28" value="LCD" style="rounded=0;whiteSpace=wrap;html=1;" vertex="1" parent="1">
          <mxGeometry x="132.5" y="474" width="105" height="40" as="geometry" />
        </mxCell>
        <mxCell id="Yo4yAzisLPnI8vR0azLB-29" value="Timer" style="rounded=0;whiteSpace=wrap;html=1;" vertex="1" parent="1">
          <mxGeometry x="612.5" y="474" width="105" height="40" as="geometry" />
        </mxCell>
        <mxCell id="Yo4yAzisLPnI8vR0azLB-30" value="GPIO" style="rounded=0;whiteSpace=wrap;html=1;" vertex="1" parent="1">
          <mxGeometry x="612.5" y="524" width="105" height="40" as="geometry" />
        </mxCell>
        <mxCell id="Yo4yAzisLPnI8vR0azLB-31" value="&lt;div&gt;Slave LCD&lt;/div&gt;MSP430fr2310" style="text;html=1;align=center;verticalAlign=middle;resizable=0;points=[];autosize=1;strokeColor=none;fillColor=none;" vertex="1" parent="1">
          <mxGeometry x="375" y="360" width="100" height="40" as="geometry" />
        </mxCell>
        <mxCell id="Yo4yAzisLPnI8vR0azLB-32" style="edgeStyle=orthogonalEdgeStyle;rounded=0;orthogonalLoop=1;jettySize=auto;html=1;entryX=0;entryY=0.75;entryDx=0;entryDy=0;" edge="1" parent="1" source="Yo4yAzisLPnI8vR0azLB-34" target="Yo4yAzisLPnI8vR0azLB-30">
          <mxGeometry relative="1" as="geometry">
            <Array as="points">
              <mxPoint x="520" y="590" />
              <mxPoint x="520" y="554" />
            </Array>
          </mxGeometry>
        </mxCell>
        <mxCell id="Yo4yAzisLPnI8vR0azLB-33" style="edgeStyle=orthogonalEdgeStyle;rounded=0;orthogonalLoop=1;jettySize=auto;html=1;entryX=0;entryY=0.5;entryDx=0;entryDy=0;" edge="1" parent="1" source="Yo4yAzisLPnI8vR0azLB-34" target="Yo4yAzisLPnI8vR0azLB-35">
          <mxGeometry relative="1" as="geometry">
            <Array as="points" />
          </mxGeometry>
        </mxCell>
        <mxCell id="Yo4yAzisLPnI8vR0azLB-34" value="MSP430fr2355" style="rounded=0;whiteSpace=wrap;html=1;" vertex="1" parent="1">
          <mxGeometry x="132.5" y="570" width="105" height="40" as="geometry" />
        </mxCell>
        <mxCell id="Yo4yAzisLPnI8vR0azLB-35" value="I2C" style="rounded=0;whiteSpace=wrap;html=1;" vertex="1" parent="1">
          <mxGeometry x="612.5" y="570" width="105" height="40" as="geometry" />
        </mxCell>
        <mxCell id="Yo4yAzisLPnI8vR0azLB-36" style="edgeStyle=orthogonalEdgeStyle;rounded=0;orthogonalLoop=1;jettySize=auto;html=1;entryX=1;entryY=0.5;entryDx=0;entryDy=0;" edge="1" parent="1">
          <mxGeometry relative="1" as="geometry">
            <mxPoint x="613" y="496.48" as="sourcePoint" />
            <mxPoint x="238" y="496.48" as="targetPoint" />
          </mxGeometry>
        </mxCell>
        <mxCell id="Yo4yAzisLPnI8vR0azLB-37" style="edgeStyle=orthogonalEdgeStyle;rounded=0;orthogonalLoop=1;jettySize=auto;html=1;entryX=1;entryY=0.75;entryDx=0;entryDy=0;" edge="1" parent="1">
          <mxGeometry relative="1" as="geometry">
            <mxPoint x="613" y="537.48" as="sourcePoint" />
            <mxPoint x="238" y="506.48" as="targetPoint" />
            <Array as="points">
              <mxPoint x="425" y="537.48" />
              <mxPoint x="425" y="506.48" />
            </Array>
          </mxGeometry>
        </mxCell>
      </root>
    </mxGraphModel>
  </diagram>
</mxfile>
